<svg xmlns="http://www.w3.org/2000/svg" xmlns:xlink="http://www.w3.org/1999/xlink" width="1920" zoomAndPan="magnify" viewBox="0 0 1440 809.999993" height="1080" preserveAspectRatio="xMidYMid meet" version="1.0"><defs><clipPath id="f8b38d79eb"><path d="M 0.164062 9 L 481.664062 9 L 481.664062 137.785156 L 0.164062 137.785156 Z M 0.164062 9 " clip-rule="nonzero"/></clipPath><clipPath id="804b6a5056"><path d="M 479.328125 8 L 960.828125 8 L 960.828125 137.785156 L 479.328125 137.785156 Z M 479.328125 8 " clip-rule="nonzero"/></clipPath><clipPath id="d370a3106e"><path d="M 0.519531 1 L 481.664062 1 L 481.664062 129.785156 L 0.519531 129.785156 Z M 0.519531 1 " clip-rule="nonzero"/></clipPath><clipPath id="f70d944caf"><rect x="0" width="482" y="0" height="130"/></clipPath><clipPath id="b873962547"><path d="M 958.398438 9 L 1440 9 L 1440 143.621094 L 958.398438 143.621094 Z M 958.398438 9 " clip-rule="nonzero"/></clipPath><clipPath id="22d6d28b09"><path d="M 0 123.65625 L 1440 123.65625 L 1440 810 L 0 810 Z M 0 123.65625 " clip-rule="nonzero"/></clipPath><clipPath id="28fc280474"><path d="M -2.15625 123.65625 L 1442.15625 123.65625 C 1452.511719 123.65625 1460.90625 132.050781 1460.90625 142.40625 L 1460.90625 811.5625 C 1460.90625 821.917969 1452.511719 830.3125 1442.15625 830.3125 L -2.15625 830.3125 C -12.511719 830.3125 -20.90625 821.917969 -20.90625 811.5625 L -20.90625 142.40625 C -20.90625 132.050781 -12.511719 123.65625 -2.15625 123.65625 Z M -2.15625 123.65625 " clip-rule="nonzero"/></clipPath><clipPath id="a384b68b03"><path d="M 0 0.65625 L 1440 0.65625 L 1440 687 L 0 687 Z M 0 0.65625 " clip-rule="nonzero"/></clipPath><clipPath id="f19a44e8c0"><path d="M -2.15625 0.65625 L 1442.15625 0.65625 C 1452.511719 0.65625 1460.90625 9.050781 1460.90625 19.40625 L 1460.90625 688.5625 C 1460.90625 698.917969 1452.511719 707.3125 1442.15625 707.3125 L -2.15625 707.3125 C -12.511719 707.3125 -20.90625 698.917969 -20.90625 688.5625 L -20.90625 19.40625 C -20.90625 9.050781 -12.511719 0.65625 -2.15625 0.65625 Z M -2.15625 0.65625 " clip-rule="nonzero"/></clipPath><clipPath id="cc5b34c1ce"><rect x="0" width="1440" y="0" height="687"/></clipPath></defs><rect x="-144" width="1728" fill="#ffffff" y="-80.999999" height="971.999992" fill-opacity="1"/><rect x="-144" width="1728" fill="#ffffff" y="-80.999999" height="971.999992" fill-opacity="1"/><g clip-path="url(#f8b38d79eb)"><path fill="#f6f6f6" d="M 0.503906 151.046875 C 2.089844 151.75 3.101562 152.832031 4 152.53125 C 11.46875 151.1875 16.964844 145.421875 16.765625 153.8125 C 20.078125 154.410156 17.859375 150.496094 23.90625 154.820312 C 28.671875 152.609375 23.140625 156.679688 26.308594 156.355469 C 22.882812 154.4375 29.933594 157.226562 29.980469 157.414062 C 30.804688 157.207031 31.59375 156.910156 32.351562 156.523438 C 32.507812 157.160156 33.132812 158.128906 34.703125 159.546875 C 41.113281 165.824219 39.425781 162.761719 41.878906 163.625 C 45.4375 162.878906 44.972656 166.707031 47.335938 166.6875 C 52.875 163.808594 57.460938 163.738281 58.132812 166.878906 C 63.335938 170.644531 60.722656 165.324219 63.765625 166.933594 C 64.894531 166.261719 67.875 163.515625 68.054688 165.828125 C 68.242188 165.285156 71.980469 163.710938 71.300781 168.242188 C 74.957031 170.496094 76.417969 176.035156 77.394531 168.460938 C 85.421875 167.828125 92.023438 162.941406 100.34375 163.796875 C 104.0625 165.375 106.644531 160.164062 109.875 160.800781 C 113.652344 157.050781 116.640625 151.019531 121.070312 153.746094 C 122.570312 148.203125 123.949219 156.140625 125.4375 153.597656 C 127.136719 153.203125 127.519531 152.664062 129.253906 152.5625 C 132.824219 159.527344 135.714844 155.445312 139.027344 149.4375 C 143.855469 144.398438 150.785156 147.757812 156.007812 148.429688 C 161.269531 148.765625 165.515625 155.484375 170.285156 152.097656 C 177.925781 156.128906 185.8125 157.652344 192.855469 159.265625 C 195.570312 158.890625 197.78125 159.4375 200.875 160.746094 C 205.066406 156.507812 208.875 170.699219 213.007812 161.804688 C 216.703125 166.933594 220.417969 160.191406 224.09375 161.730469 C 228.289062 166.703125 232.425781 160.386719 236.523438 163.578125 C 244.144531 172.15625 252.203125 166.488281 260.089844 164.921875 C 264.398438 169.414062 267.878906 158.15625 272.046875 160.890625 C 274.894531 161.269531 277.332031 161.226562 280.199219 160.011719 C 283.84375 159.003906 287.394531 157.027344 291.039062 156.386719 C 297.546875 149.570312 303.433594 150.695312 310.441406 154.582031 C 316.449219 153.679688 322.457031 150.433594 328.464844 154.605469 C 332.890625 158.28125 337.058594 153.632812 341.5 153.523438 C 346 153.46875 350.511719 154.023438 355.023438 153.5 C 359.535156 154.382812 364.046875 151.320312 368.550781 153.5625 C 373.308594 153.664062 377.726562 153.515625 382.363281 154.597656 C 386.535156 155.4375 389.222656 148.988281 392.890625 159.019531 C 395.914062 160.558594 398.601562 163.023438 403.050781 162.609375 C 405.027344 164.65625 409.28125 159.972656 412.855469 161.992188 C 418.980469 159.925781 418.902344 160.214844 424.773438 161.761719 C 430.769531 160.6875 431.9375 156.476562 434.921875 161.992188 C 447.308594 163.792969 442.257812 167.992188 458.832031 160.984375 C 464.390625 150.859375 464.207031 161.824219 477.496094 158.667969 C 479.078125 158.570312 480.261719 158.515625 481.191406 158.492188 L 481.191406 33.132812 C 479.375 33.074219 477.535156 31.789062 477.5625 29.21875 C 477.335938 25.917969 472.402344 26.175781 471.980469 26.300781 C 473.230469 26.617188 467.847656 25.894531 462.710938 25.550781 C 453.953125 24.09375 458.992188 27.671875 452.488281 24.753906 C 447.394531 21.03125 438.480469 17.027344 436.820312 25.511719 C 433.828125 29.742188 432.203125 29.585938 431.949219 28.609375 C 431.054688 35.535156 427.304688 33.097656 424.703125 29.179688 C 422.597656 35.839844 414.167969 30.585938 411.6875 29.652344 C 408.132812 30.40625 402.230469 26.3125 396.945312 29.652344 C 393.445312 31.179688 389.585938 30.28125 384.570312 28.664062 C 382.519531 32.761719 373.363281 25.699219 376.757812 26.273438 C 372.507812 21.472656 373.820312 22.542969 369.800781 25.554688 C 363.8125 18.714844 359.726562 23.667969 355.816406 25.34375 C 353.980469 21.765625 352 24.792969 350.179688 23.488281 C 348.027344 16.136719 345.289062 25.710938 343.335938 21.523438 C 341.238281 23.09375 339.683594 21.316406 337.960938 17.300781 C 335.628906 11.425781 335.070312 18.476562 332.265625 15.199219 C 327.035156 14.402344 323.011719 3.234375 317.539062 13.25 C 313.277344 14.929688 308.824219 22.226562 304.4375 13.03125 C 300.070312 15.382812 295.742188 13.222656 291.777344 14.554688 C 289.597656 18.945312 287.289062 13.492188 285.160156 15.78125 C 281.425781 19.757812 277.832031 26.773438 274.289062 21.292969 C 269.09375 27.355469 262.550781 23.425781 256.484375 23.273438 C 251.191406 27.492188 245 21.339844 239.410156 22.398438 C 236.648438 22.382812 234.542969 29.894531 232.019531 24.566406 C 229.84375 24.992188 227.535156 26.367188 225.433594 26.273438 C 223.121094 25.800781 221.019531 24.316406 218.792969 29.042969 C 216.621094 25.058594 213.480469 28.117188 211.808594 31.878906 C 210.550781 22.941406 211.058594 39.078125 210.074219 35.402344 C 209.460938 32.421875 208.492188 41.5625 207.820312 36.816406 C 205.503906 38.566406 205.214844 43.691406 201.695312 38.898438 C 197.328125 40.515625 193.222656 41.960938 189.183594 39.777344 C 184.839844 41.085938 180.984375 40.59375 176.417969 40.929688 C 171.894531 43.671875 167.347656 37.707031 162.832031 40.953125 C 160.25 41.335938 158.464844 40.617188 155.945312 39.898438 C 154.824219 45.101562 153.875 41.40625 152.710938 39.722656 C 150.511719 39.128906 148.699219 35.597656 146.5 37.746094 C 143.8125 33.34375 141.820312 34.5625 139.136719 37.113281 C 137.8125 37.804688 137.140625 38.121094 135.820312 35.804688 C 131.453125 33.082031 127.839844 36.457031 124.179688 32.691406 C 120.714844 29.558594 114.773438 32.339844 110.699219 34.527344 C 108.785156 37.070312 106.667969 39.226562 101.859375 36.800781 C 102.867188 34.558594 99.277344 30.808594 95.890625 38.925781 C 88.816406 48.101562 87.492188 39.648438 84.574219 35.796875 C 81.214844 34.957031 71.019531 31.015625 70.644531 34.816406 C 62.957031 34.308594 58.609375 30.476562 54.101562 30.621094 C 58.417969 30.652344 46.601562 35.28125 48.367188 28.269531 C 44 28.117188 39.167969 21.351562 41.964844 22.300781 C 40.761719 19.011719 31.144531 16.550781 29.871094 19.214844 C 29.472656 25.261719 14.777344 12.292969 24.101562 15.183594 C 22.308594 11.207031 17.335938 8.914062 17.753906 14.175781 C 11.875 16.476562 16.296875 18.460938 6.402344 11.152344 C 4.386719 14.40625 2.433594 13.636719 0.46875 12.4375 Z M 0.503906 151.046875 " fill-opacity="1" fill-rule="nonzero"/></g><g clip-path="url(#804b6a5056)"><g transform="matrix(1, 0, 0, 1, 479, 8)"><g clip-path="url(#f70d944caf)"><g clip-path="url(#d370a3106e)"><path fill="#f6f6f6" d="M 481.324219 143.046875 C 479.738281 143.75 478.726562 144.832031 477.828125 144.53125 C 470.359375 143.1875 464.863281 137.421875 465.0625 145.8125 C 461.75 146.410156 463.96875 142.496094 457.921875 146.820312 C 453.152344 144.609375 458.6875 148.679688 455.519531 148.355469 C 458.945312 146.4375 451.894531 149.226562 451.847656 149.414062 C 451.023438 149.207031 450.234375 148.910156 449.476562 148.523438 C 449.316406 149.160156 448.691406 150.128906 447.125 151.546875 C 440.714844 157.824219 442.402344 154.761719 439.949219 155.625 C 436.390625 154.878906 436.855469 158.707031 434.492188 158.6875 C 428.953125 155.808594 424.367188 155.738281 423.695312 158.878906 C 418.492188 162.644531 421.105469 157.324219 418.0625 158.933594 C 416.933594 158.261719 413.953125 155.515625 413.773438 157.828125 C 413.582031 157.285156 409.847656 155.710938 410.527344 160.242188 C 406.871094 162.496094 405.410156 168.035156 404.433594 160.460938 C 396.40625 159.828125 389.804688 154.941406 381.484375 155.796875 C 377.765625 157.375 375.183594 152.164062 371.953125 152.800781 C 368.175781 149.050781 365.1875 143.019531 360.757812 145.746094 C 359.257812 140.203125 357.878906 148.140625 356.390625 145.597656 C 354.691406 145.203125 354.308594 144.664062 352.574219 144.5625 C 349.003906 151.527344 346.113281 147.445312 342.800781 141.4375 C 337.972656 136.398438 331.042969 139.757812 325.820312 140.429688 C 320.558594 140.765625 316.3125 147.484375 311.542969 144.097656 C 303.902344 148.128906 296.015625 149.652344 288.96875 151.265625 C 286.257812 150.890625 284.046875 151.4375 280.953125 152.746094 C 276.761719 148.507812 272.949219 162.699219 268.820312 153.804688 C 265.125 158.933594 261.410156 152.191406 257.734375 153.730469 C 253.539062 158.703125 249.402344 152.386719 245.304688 155.578125 C 237.683594 164.15625 229.625 158.488281 221.738281 156.921875 C 217.429688 161.414062 213.949219 150.15625 209.78125 152.890625 C 206.933594 153.269531 204.496094 153.226562 201.628906 152.011719 C 197.980469 151.003906 194.433594 149.027344 190.789062 148.386719 C 184.28125 141.570312 178.394531 142.695312 171.386719 146.582031 C 165.378906 145.679688 159.371094 142.433594 153.363281 146.605469 C 148.9375 150.28125 144.769531 145.632812 140.328125 145.523438 C 135.828125 145.46875 131.316406 146.023438 126.804688 145.5 C 122.292969 146.382812 117.78125 143.320312 113.273438 145.5625 C 108.519531 145.664062 104.101562 145.515625 99.464844 146.597656 C 95.292969 147.4375 92.605469 140.988281 88.9375 151.019531 C 85.914062 152.558594 83.226562 155.023438 78.777344 154.609375 C 76.800781 156.65625 72.546875 151.972656 68.972656 153.992188 C 62.847656 151.925781 62.925781 152.214844 57.054688 153.761719 C 51.058594 152.6875 49.890625 148.476562 46.90625 153.992188 C 34.515625 155.792969 39.570312 159.992188 22.996094 152.984375 C 17.4375 142.859375 17.621094 153.824219 4.332031 150.667969 C 2.75 150.570312 1.566406 150.515625 0.636719 150.492188 L 0.636719 25.132812 C 2.453125 25.074219 4.292969 23.789062 4.265625 21.21875 C 4.492188 17.917969 9.425781 18.175781 9.847656 18.300781 C 8.597656 18.617188 13.980469 17.894531 19.117188 17.550781 C 27.875 16.09375 22.835938 19.671875 29.339844 16.753906 C 34.433594 13.03125 43.347656 9.027344 45.007812 17.511719 C 48 21.742188 49.625 21.585938 49.878906 20.609375 C 50.773438 27.535156 54.523438 25.097656 57.125 21.179688 C 59.230469 27.839844 67.660156 22.585938 70.140625 21.652344 C 73.695312 22.40625 79.597656 18.3125 84.878906 21.652344 C 88.382812 23.179688 92.242188 22.28125 97.253906 20.664062 C 99.308594 24.761719 108.464844 17.699219 105.070312 18.273438 C 109.320312 13.472656 108.007812 14.542969 112.027344 17.554688 C 118.015625 10.714844 122.101562 15.667969 126.011719 17.34375 C 127.847656 13.765625 129.828125 16.792969 131.648438 15.488281 C 133.800781 8.136719 136.539062 17.710938 138.492188 13.523438 C 140.589844 15.09375 142.144531 13.316406 143.867188 9.300781 C 146.199219 3.425781 146.753906 10.476562 149.5625 7.199219 C 154.789062 6.402344 158.816406 -4.765625 164.289062 5.25 C 168.550781 6.929688 173.003906 14.226562 177.390625 5.03125 C 181.757812 7.382812 186.085938 5.222656 190.050781 6.554688 C 192.230469 10.945312 194.539062 5.492188 196.667969 7.78125 C 200.402344 11.757812 203.996094 18.773438 207.539062 13.292969 C 212.730469 19.355469 219.277344 15.425781 225.34375 15.273438 C 230.636719 19.492188 236.828125 13.339844 242.417969 14.398438 C 245.179688 14.382812 247.285156 21.894531 249.808594 16.566406 C 251.984375 16.992188 254.292969 18.367188 256.394531 18.273438 C 258.703125 17.800781 260.808594 16.316406 263.035156 21.042969 C 265.203125 17.058594 268.347656 20.117188 270.019531 23.878906 C 271.277344 14.941406 270.765625 31.078125 271.75 27.402344 C 272.367188 24.421875 273.335938 33.5625 274.007812 28.816406 C 276.324219 30.566406 276.613281 35.691406 280.132812 30.898438 C 284.5 32.515625 288.605469 33.960938 292.644531 31.777344 C 296.988281 33.085938 300.84375 32.59375 305.410156 32.929688 C 309.929688 35.671875 314.480469 29.707031 318.996094 32.953125 C 321.578125 33.335938 323.359375 32.617188 325.882812 31.898438 C 327.003906 37.101562 327.953125 33.40625 329.117188 31.722656 C 331.316406 31.128906 333.128906 27.597656 335.328125 29.746094 C 338.015625 25.34375 340.003906 26.5625 342.691406 29.113281 C 344.015625 29.804688 344.6875 30.121094 346.007812 27.804688 C 350.375 25.082031 353.984375 28.457031 357.648438 24.691406 C 361.109375 21.558594 367.054688 24.339844 371.128906 26.527344 C 373.042969 29.070312 375.160156 31.226562 379.96875 28.800781 C 378.960938 26.558594 382.550781 22.808594 385.9375 30.925781 C 393.011719 40.101562 394.335938 31.648438 397.253906 27.796875 C 400.613281 26.957031 410.808594 23.015625 411.183594 26.816406 C 418.871094 26.308594 423.21875 22.476562 427.726562 22.621094 C 423.410156 22.652344 435.226562 27.28125 433.460938 20.269531 C 437.828125 20.117188 442.660156 13.351562 439.863281 14.300781 C 441.066406 11.011719 450.683594 8.550781 451.953125 11.214844 C 452.355469 17.261719 467.050781 4.292969 457.726562 7.183594 C 459.519531 3.207031 464.492188 0.914062 464.074219 6.175781 C 469.953125 8.476562 465.527344 10.460938 475.425781 3.152344 C 477.441406 6.40625 479.394531 5.636719 481.355469 4.4375 Z M 481.324219 143.046875 " fill-opacity="1" fill-rule="nonzero"/></g></g></g></g><g clip-path="url(#b873962547)"><path fill="#f6f6f6" d="M 958.851562 157.457031 C 960.507812 158.191406 961.5625 159.324219 962.5 159.007812 C 970.292969 157.605469 976.027344 151.585938 975.820312 160.34375 C 979.277344 160.964844 976.964844 156.882812 983.273438 161.394531 C 988.246094 159.085938 982.472656 163.335938 985.777344 163 C 982.203125 160.996094 989.558594 163.90625 989.609375 164.101562 C 990.46875 163.886719 991.292969 163.578125 992.082031 163.175781 C 992.25 163.835938 992.898438 164.847656 994.535156 166.328125 C 1001.222656 172.875 999.464844 169.683594 1002.023438 170.582031 C 1005.738281 169.800781 1005.25 173.796875 1007.71875 173.777344 C 1013.5 170.773438 1018.28125 170.699219 1018.984375 173.976562 C 1024.414062 177.90625 1021.6875 172.355469 1024.863281 174.03125 C 1026.039062 173.332031 1029.148438 170.46875 1029.335938 172.878906 C 1029.535156 172.316406 1033.429688 170.671875 1032.722656 175.398438 C 1036.535156 177.75 1038.0625 183.53125 1039.082031 175.628906 C 1047.457031 174.96875 1054.34375 169.867188 1063.027344 170.761719 C 1066.90625 172.410156 1069.601562 166.96875 1072.96875 167.636719 C 1076.914062 163.726562 1080.027344 157.429688 1084.652344 160.277344 C 1086.21875 154.492188 1087.65625 162.773438 1089.207031 160.121094 C 1090.980469 159.707031 1091.382812 159.144531 1093.191406 159.039062 C 1096.914062 166.308594 1099.933594 162.046875 1103.390625 155.777344 C 1108.425781 150.523438 1115.65625 154.027344 1121.105469 154.726562 C 1126.59375 155.078125 1131.027344 162.089844 1136.003906 158.554688 C 1143.976562 162.761719 1152.207031 164.351562 1159.554688 166.035156 C 1162.386719 165.640625 1164.695312 166.214844 1167.921875 167.578125 C 1172.296875 163.15625 1176.269531 177.964844 1180.582031 168.683594 C 1184.4375 174.03125 1188.3125 167 1192.148438 168.605469 C 1196.523438 173.792969 1200.839844 167.203125 1205.117188 170.535156 C 1213.070312 179.484375 1221.476562 173.570312 1229.707031 171.9375 C 1234.203125 176.621094 1237.835938 164.875 1242.183594 167.730469 C 1245.152344 168.125 1247.695312 168.082031 1250.6875 166.8125 C 1254.492188 165.761719 1258.195312 163.699219 1261.996094 163.03125 C 1268.789062 155.914062 1274.929688 157.09375 1282.242188 161.148438 C 1288.511719 160.207031 1294.777344 156.816406 1301.050781 161.171875 C 1305.667969 165.007812 1310.015625 160.15625 1314.648438 160.042969 C 1319.34375 159.984375 1324.050781 160.5625 1328.757812 160.015625 C 1333.46875 160.9375 1338.175781 157.742188 1342.875 160.082031 C 1347.839844 160.1875 1352.449219 160.035156 1357.285156 161.164062 C 1361.636719 162.039062 1364.441406 155.308594 1368.269531 165.777344 C 1371.425781 167.382812 1374.226562 169.957031 1378.871094 169.523438 C 1380.933594 171.660156 1385.375 166.769531 1389.101562 168.878906 C 1395.492188 166.722656 1395.410156 167.023438 1401.539062 168.640625 C 1407.792969 167.515625 1409.015625 163.125 1412.125 168.878906 C 1425.054688 170.753906 1419.78125 175.140625 1437.074219 167.824219 C 1442.875 157.261719 1442.683594 168.707031 1456.546875 165.410156 C 1458.199219 165.308594 1459.4375 165.253906 1460.402344 165.226562 L 1460.402344 34.425781 C 1458.511719 34.367188 1456.589844 33.023438 1456.617188 30.339844 C 1456.382812 26.894531 1451.234375 27.167969 1450.792969 27.300781 C 1452.097656 27.628906 1446.480469 26.871094 1441.121094 26.515625 C 1431.980469 24.996094 1437.242188 28.730469 1430.453125 25.683594 C 1425.140625 21.800781 1415.839844 17.621094 1414.105469 26.476562 C 1410.984375 30.886719 1409.292969 30.722656 1409.023438 29.707031 C 1408.09375 36.933594 1404.175781 34.390625 1401.464844 30.300781 C 1399.265625 37.25 1390.472656 31.769531 1387.882812 30.792969 C 1384.175781 31.582031 1378.015625 27.308594 1372.503906 30.792969 C 1368.851562 32.386719 1364.824219 31.453125 1359.589844 29.761719 C 1357.449219 34.039062 1347.894531 26.671875 1351.4375 27.269531 C 1347 22.257812 1348.371094 23.378906 1344.179688 26.519531 C 1337.929688 19.382812 1333.664062 24.550781 1329.585938 26.300781 C 1327.671875 22.566406 1325.605469 25.726562 1323.703125 24.363281 C 1321.460938 16.695312 1318.605469 26.683594 1316.566406 22.3125 C 1314.378906 23.953125 1312.753906 22.097656 1310.957031 17.90625 C 1308.523438 11.777344 1307.941406 19.132812 1305.015625 15.714844 C 1299.558594 14.882812 1295.359375 3.230469 1289.648438 13.679688 C 1285.203125 15.433594 1280.554688 23.046875 1275.976562 13.453125 C 1271.421875 15.90625 1266.90625 13.652344 1262.769531 15.042969 C 1260.492188 19.625 1258.085938 13.933594 1255.863281 16.320312 C 1251.96875 20.472656 1248.21875 27.789062 1244.523438 22.074219 C 1239.101562 28.398438 1232.277344 24.300781 1225.945312 24.136719 C 1220.421875 28.539062 1213.960938 22.121094 1208.128906 23.226562 C 1205.25 23.210938 1203.050781 31.046875 1200.417969 25.488281 C 1198.148438 25.933594 1195.738281 27.367188 1193.546875 27.269531 C 1191.132812 26.777344 1188.941406 25.226562 1186.617188 30.160156 C 1184.351562 26.003906 1181.070312 29.191406 1179.332031 33.117188 C 1178.015625 23.792969 1178.546875 40.628906 1177.523438 36.792969 C 1176.878906 33.683594 1175.867188 43.222656 1175.167969 38.269531 C 1172.75 40.097656 1172.449219 45.445312 1168.777344 40.441406 C 1164.21875 42.128906 1159.9375 43.636719 1155.722656 41.359375 C 1151.1875 42.722656 1147.164062 42.210938 1142.402344 42.5625 C 1137.683594 45.421875 1132.9375 39.199219 1128.226562 42.585938 C 1125.535156 42.988281 1123.671875 42.238281 1121.039062 41.488281 C 1119.871094 46.914062 1118.882812 43.058594 1117.664062 41.300781 C 1115.371094 40.679688 1113.480469 36.996094 1111.1875 39.242188 C 1108.382812 34.644531 1106.304688 35.917969 1103.5 38.578125 C 1102.121094 39.300781 1101.417969 39.628906 1100.042969 37.214844 C 1095.484375 34.371094 1091.71875 37.894531 1087.898438 33.964844 C 1084.285156 30.695312 1078.082031 33.597656 1073.832031 35.878906 C 1071.835938 38.535156 1069.625 40.785156 1064.605469 38.253906 C 1065.660156 35.914062 1061.910156 32 1058.378906 40.472656 C 1050.996094 50.046875 1049.617188 41.222656 1046.570312 37.203125 C 1043.066406 36.332031 1032.429688 32.214844 1032.039062 36.183594 C 1024.015625 35.65625 1019.480469 31.65625 1014.777344 31.808594 C 1019.28125 31.839844 1006.953125 36.667969 1008.796875 29.351562 C 1004.238281 29.191406 999.195312 22.132812 1002.113281 23.125 C 1000.859375 19.695312 990.820312 17.125 989.496094 19.902344 C 989.078125 26.210938 973.746094 12.679688 983.476562 15.699219 C 981.605469 11.546875 976.417969 9.15625 976.851562 14.648438 C 970.71875 17.046875 975.332031 19.117188 965.007812 11.492188 C 962.90625 14.886719 960.863281 14.082031 958.816406 12.835938 Z M 958.851562 157.457031 " fill-opacity="1" fill-rule="nonzero"/></g><g clip-path="url(#22d6d28b09)"><g clip-path="url(#28fc280474)"><g transform="matrix(1, 0, 0, 1, 0, 123)"><g clip-path="url(#cc5b34c1ce)"><g clip-path="url(#a384b68b03)"><g clip-path="url(#f19a44e8c0)"><path fill="#f6f6f6" d="M -20.90625 0.65625 L 1461.417969 0.65625 L 1461.417969 707.3125 L -20.90625 707.3125 Z M -20.90625 0.65625 " fill-opacity="1" fill-rule="nonzero"/></g></g></g></g></g></g></svg>